# xmcd
#
# Track frame offsets:
#	182
#	7797
#	26217
#	42585
#	93002
#	118167
#	167190
#	182007
#	196610
#	263115
#	275272
#	288700
#	306572
#
# Disc length: 4409 seconds
#
# Revision: 16
# Processed by: cddbd v1.5.2PL0 Copyright (c) Steve Scherf et al.
# Submitted via: EasyCDDAExtractor 15.3.0.1
#
DISCID=b411370d
DTITLE=Luis Miguel - Vivo
DYEAR=2000
DGENRE=Latin
TTITLE0=Intro
TTITLE1=Quiero
TTITLE2=Tu Solo Tu
TTITLE3=Romance (No Me Platiques Mas, No Se Tu, La Puerta, La Barca, Inolvidab
TTITLE3=le)
TTITLE4=Suave
TTITLE5=Segundo Romance (El Dia Que Me Quieras, Solamente Una Vez, Somos Novio
TTITLE5=s, Todo Y Nada, Nosotros)
TTITLE6=O Tu O Ninguna
TTITLE7=Sol, Arena Y Mar
TTITLE8=Romances (Voy A Apagar La Luz, Contigo Aprendi, Por Debajo De La Mesa,
TTITLE8=El Reloj, Sabor A Mi, La Gloria Eres Tu, Besame Mucho)
TTITLE9=Y
TTITLE10=La Bikina
TTITLE11=Como Es Posible Que A Mi Lado
TTITLE12=Te Propongo Esta Noche
EXTD=
EXTT0=
EXTT1=
EXTT2=
EXTT3=
EXTT4=
EXTT5=
EXTT6=
EXTT7=
EXTT8=
EXTT9=
EXTT10=
EXTT11=
EXTT12=
PLAYORDER=
